<svg width="20" height="20" viewBox="0 0 20 20" fill="none" xmlns="http://www.w3.org/2000/svg">
  <path d="M19 10.25L19.3534 9.89632C19.4473 9.9901 19.5 10.1173 19.5 10.25C19.5 10.3827 19.4473 10.5099 19.3534 10.6037L19 10.25ZM9.39016 1.35368C9.19483 1.15848 9.19472 0.841899 9.38991 0.646569C9.58511 0.451239 9.90169 0.45113 10.097 0.646324L9.39016 1.35368ZM10.097 19.8537C9.90169 20.0489 9.58511 20.0488 9.38991 19.8534C9.19472 19.6581 9.19483 19.3415 9.39016 19.1463L10.097 19.8537ZM0 9.75H19V10.75H0V9.75ZM18.6466 10.6037L9.39016 1.35368L10.097 0.646324L19.3534 9.89632L18.6466 10.6037ZM19.3534 10.6037L10.097 19.8537L9.39016 19.1463L18.6466 9.89632L19.3534 10.6037Z" fill="#2E2D2D" />
</svg>