<svg width="20" height="20" viewBox="0 0 20 20" fill="none" xmlns="http://www.w3.org/2000/svg">
<path d="M3.06061 6V5.25C2.68097 5.25 2.3612 5.53368 2.31595 5.91061L3.06061 6ZM17 6L17.7451 5.91403C17.7014 5.53559 17.381 5.25 17 5.25V6ZM18.5 19V19.75C18.7139 19.75 18.9176 19.6587 19.0599 19.499C19.2022 19.3393 19.2696 19.1265 19.2451 18.914L18.5 19ZM1.5 19L0.755346 18.9106C0.729782 19.1236 0.796615 19.3373 0.938954 19.4977C1.08129 19.6582 1.28551 19.75 1.5 19.75V19ZM7 2.5L6.37279 2.08877L7 2.5ZM13 2.5L13.6096 2.06308L13 2.5ZM16.2549 6.08597L17.7549 19.086L19.2451 18.914L17.7451 5.91403L16.2549 6.08597ZM18.5 18.25H1.5V19.75H18.5V18.25ZM2.24465 19.0894L3.80526 6.08939L2.31595 5.91061L0.755346 18.9106L2.24465 19.0894ZM6 6C6.74598 6.07754 6.74597 6.07763 6.74596 6.07771C6.74596 6.07772 6.74595 6.0778 6.74595 6.07783C6.74594 6.07789 6.74594 6.07791 6.74594 6.0779C6.74595 6.07788 6.74596 6.07772 6.74599 6.07742C6.74606 6.07682 6.74618 6.07566 6.74636 6.07397C6.74673 6.07059 6.74734 6.06505 6.74819 6.05746C6.74991 6.04227 6.75262 6.0189 6.75638 5.98821C6.76391 5.92679 6.77565 5.83626 6.79209 5.72342C6.82506 5.49716 6.87649 5.1843 6.95006 4.8385C7.1035 4.11731 7.33153 3.36221 7.62721 2.91123L6.37279 2.08877C5.91242 2.79094 5.64045 3.78584 5.4829 4.52636C5.40097 4.91141 5.34416 5.25735 5.30777 5.50715C5.28952 5.63235 5.2763 5.73418 5.26754 5.8056C5.26315 5.84133 5.25988 5.86951 5.25765 5.88927C5.25654 5.89915 5.25568 5.90693 5.25508 5.91249C5.25478 5.91528 5.25454 5.91751 5.25436 5.91917C5.25428 5.92001 5.2542 5.9207 5.25415 5.92125C5.25412 5.92152 5.25409 5.92176 5.25407 5.92196C5.25406 5.92206 5.25405 5.92219 5.25404 5.92224C5.25403 5.92235 5.25402 5.92246 6 6ZM7.62721 2.91123C7.92804 2.4524 8.24331 2.17916 8.59164 2.01103C8.94816 1.83895 9.39536 1.75 10 1.75V0.25C9.25509 0.25 8.56456 0.358515 7.93961 0.660159C7.30645 0.965765 6.7965 1.44252 6.37279 2.08877L7.62721 2.91123ZM10 1.75C10.5962 1.75 11.0311 1.84371 11.3838 2.01864C11.7337 2.19226 12.0583 2.47349 12.3904 2.93692L13.6096 2.06308C13.1711 1.45125 12.6704 0.982469 12.0504 0.674907C11.4331 0.368658 10.7533 0.25 10 0.25V1.75ZM3.06061 6.75H14V5.25H3.06061V6.75ZM14 6.75H17V5.25H14V6.75ZM12.3904 2.93692C12.7531 3.44293 12.9786 4.18714 13.1077 4.87019C13.1701 5.20039 13.2062 5.4945 13.2264 5.70533C13.2366 5.8104 13.2427 5.89387 13.2462 5.94971C13.248 5.97761 13.2491 5.99854 13.2498 6.01175C13.2501 6.01835 13.2503 6.02301 13.2504 6.02565C13.2505 6.02696 13.2505 6.02777 13.2505 6.02806C13.2505 6.0282 13.2505 6.02821 13.2505 6.0281C13.2505 6.02804 13.2505 6.02795 13.2505 6.02782C13.2505 6.02776 13.2505 6.02764 13.2505 6.02761C13.2505 6.02748 13.2505 6.02734 14 6C14.7495 5.97266 14.7495 5.9725 14.7495 5.97234C14.7495 5.97228 14.7495 5.97211 14.7495 5.97198C14.7495 5.97172 14.7495 5.97142 14.7494 5.97109C14.7494 5.97044 14.7494 5.96964 14.7494 5.96872C14.7493 5.96686 14.7492 5.96447 14.7491 5.96155C14.7488 5.95571 14.7484 5.94777 14.748 5.93782C14.747 5.91791 14.7455 5.88995 14.7432 5.8547C14.7388 5.78426 14.7314 5.68445 14.7195 5.56158C14.696 5.31652 14.6543 4.97607 14.5816 4.59156C14.4405 3.84519 14.166 2.83941 13.6096 2.06308L12.3904 2.93692Z" fill="#4C4A4A"/>
</svg>
