<svg width="253" height="62" viewBox="0 0 253 62" fill="none" xmlns="http://www.w3.org/2000/svg">
<g clip-path="url(#clip0_3069_10270)">
<path d="M150.712 30.7386L154.491 42.3198H150.829L147.495 31.4138L147.269 31.4157H144.629V42.3198H141.28V16.5241H142.85H144.629H147.269C148.635 16.5241 149.801 16.7536 150.775 17.2086C151.749 17.6618 152.495 18.3336 153.006 19.2102C153.517 20.0949 153.769 21.1474 153.769 22.3752V25.3894C153.769 26.6534 153.517 27.7368 153.006 28.6448C152.495 29.5458 151.749 30.236 150.775 30.7084L150.712 30.7388L150.712 30.7386ZM144.629 28.2273H147.57C148.165 28.2273 148.682 28.1125 149.109 27.8883C149.542 27.665 149.867 27.338 150.089 26.9139C150.312 26.4907 150.42 25.9762 150.42 25.371V22.7504C150.42 22.1091 150.312 21.5647 150.089 21.1106C149.867 20.6511 149.542 20.3063 149.109 20.0701C148.682 19.8338 148.165 19.7197 147.57 19.7197H144.629V28.2271V28.2273ZM126.184 16.5419H127.927H129.533H137.175V19.7375H129.533V27.9245H136.298V31.1138H129.533V39.1306H137.175V42.3198H129.533H127.927H126.184V16.5419ZM117.539 19.7375V42.3198H114.19V19.7375H109.644V16.5419H122.079V19.7375H117.539ZM99.394 42.5867C98.0532 42.5867 96.9226 42.351 95.9906 41.8841C95.0644 41.4181 94.3603 40.7349 93.8797 39.827C93.3983 38.9259 93.1577 37.8238 93.1577 36.5239V35.2462H96.5016V36.3959C96.5016 37.3335 96.7538 38.0483 97.253 38.55C97.7522 39.0527 98.4617 39.3068 99.3941 39.3068C100.296 39.3068 100.987 39.0588 101.469 38.5624C101.956 38.0665 102.196 37.3466 102.196 36.3959V34.1451C102.196 33.5216 102.04 32.9894 101.733 32.5538C101.432 32.1115 101.047 31.7548 100.591 31.4762C100.133 31.204 99.4961 30.8779 98.6905 30.5141C98.6657 30.5021 98.6421 30.4904 98.6185 30.4842C98.5946 30.478 98.5701 30.4717 98.5464 30.4597L98.2997 30.3508C97.2172 29.8544 96.3335 29.3709 95.6476 28.898C94.9624 28.4268 94.3791 27.773 93.8975 26.9317C93.4167 26.0913 93.1761 25.0319 93.1761 23.7436V22.2546C93.1761 20.9778 93.4105 19.8882 93.8856 18.9988C94.3607 18.1097 95.0648 17.4322 95.9911 16.9715C96.923 16.5055 98.0473 16.2764 99.376 16.2764C100.669 16.2764 101.763 16.512 102.659 16.9775C103.562 17.4444 104.241 18.1279 104.704 19.035C105.166 19.9371 105.402 21.032 105.402 22.321V23.6704H102.052V22.4665C102.052 21.5227 101.824 20.7963 101.366 20.3C100.91 19.8035 100.241 19.5552 99.3759 19.5552C98.4496 19.5552 97.7401 19.7918 97.2532 20.2641C96.7661 20.742 96.5191 21.4133 96.5191 22.2848V23.9004C96.5191 24.5479 96.6756 25.0982 96.9765 25.5402C97.2832 25.9817 97.668 26.3392 98.1247 26.6107C98.5821 26.8831 99.2133 27.1987 100.007 27.555C100.092 27.5855 100.17 27.6223 100.236 27.658C100.308 27.6944 100.386 27.7311 100.464 27.7667C100.525 27.7906 100.591 27.8155 100.65 27.8454C100.717 27.8764 100.777 27.9004 100.837 27.9243C101.86 28.3843 102.683 28.8264 103.302 29.2435C103.928 29.6674 104.457 30.2723 104.89 31.0651C105.323 31.8581 105.54 32.8866 105.54 34.1628V36.5238C105.54 37.8237 105.306 38.9259 104.83 39.8268C104.349 40.7347 103.658 41.418 102.737 41.8839C101.824 42.3508 100.711 42.5866 99.3943 42.5866L99.394 42.5867ZM84.2802 36.6986H78.9287L77.7475 42.3198H74.1515L80.0686 16.5419H83.1357L89.0528 42.3198H85.4628L84.28 36.6986H84.2802ZM79.5945 33.5275H83.6128L81.6024 23.9688L79.5945 33.5275ZM239.974 27.0808L245.864 42.3198H242.134L237.892 31.1761L235.611 35.6622V42.3198H232.33V17.0631H235.611V28.4958L241.48 17.0631H245.069L239.974 27.0808ZM222.393 42.5809C221.173 42.5809 220.124 42.3262 219.252 41.8161C218.38 41.3058 217.708 40.5709 217.25 39.6048C216.789 38.632 216.56 37.4757 216.56 36.1187V23.2831C216.56 21.9191 216.789 20.7519 217.25 19.7847C217.708 18.8184 218.375 18.0771 219.246 17.5676C220.113 17.0576 221.161 16.8024 222.393 16.8024C223.625 16.8024 224.679 17.0574 225.551 17.5676C226.428 18.0771 227.095 18.8184 227.549 19.7847C228.002 20.7521 228.226 21.9133 228.226 23.2651V24.3436H224.915V23.2651C224.915 22.5839 224.814 21.9969 224.62 21.51C224.425 21.0245 224.138 20.6561 223.759 20.4017C223.377 20.1471 222.923 20.016 222.393 20.016C221.863 20.016 221.415 20.1469 221.037 20.4017C220.666 20.6561 220.377 21.0245 220.177 21.51C219.978 21.9969 219.872 22.589 219.872 23.2831V36.1187C219.872 36.8002 219.978 37.3871 220.177 37.874C220.377 38.3599 220.666 38.7336 221.037 38.9824C221.415 39.2371 221.863 39.3682 222.393 39.3682C222.923 39.3682 223.377 39.2371 223.759 38.9824C224.138 38.7334 224.426 38.3599 224.62 37.874C224.814 37.3871 224.915 36.8002 224.915 36.1187V35.0391H228.226V36.1187C228.226 37.4757 228.002 38.632 227.549 39.6048C227.095 40.5709 226.428 41.3058 225.551 41.8161C224.679 42.326 223.625 42.5809 222.393 42.5809ZM190.454 30.9716L194.159 42.3198H190.47L187.202 31.6353L187.081 31.6366H184.495V42.32H181.214V17.0454H182.752H184.495H187.081C188.419 17.0454 189.562 17.271 190.518 17.7159C191.472 18.1601 192.202 18.8185 192.702 19.6777C193.204 20.5442 193.451 21.5757 193.451 22.7797V25.7312C193.451 26.9705 193.204 28.0322 192.702 28.9217C192.202 29.8045 191.472 30.4804 190.518 30.9431L190.454 30.9717L190.454 30.9716ZM184.495 28.5125H187.377C187.96 28.5125 188.467 28.3991 188.885 28.18C189.309 27.9611 189.627 27.6413 189.844 27.2251C190.064 26.8106 190.169 26.3068 190.169 25.7142V23.146C190.169 22.5181 190.064 21.9845 189.844 21.5396C189.627 21.0897 189.309 20.7519 188.885 20.5202C188.467 20.2892 187.96 20.1758 187.377 20.1758H184.495V28.5123V28.5125ZM164.925 17.0631H177.11V20.1938H172.661V42.3198H169.38V20.1938H164.925V17.0631H164.925ZM202.997 33.7873H207.016L205.006 24.2292L202.997 33.7873ZM207.683 36.9592H202.332L201.151 42.581H197.555L203.472 16.8027H206.539L212.456 42.581H208.866L207.683 36.9592ZM67.1068 16.5417H70.0473V42.3197H66.9806V25.7614L62.879 38.1027H61.8028H60.7263L56.6246 25.7614V42.3197H53.5586V16.5417H56.4988L61.8028 31.8713L67.1068 16.5417Z" fill="#F4F4EF"/>
<path d="M2.74609 56.089L3.72046 62L35.9579 55.6956L38.3295 42.3596L2.74609 56.089Z" fill="#C42E2C"/>
<path d="M1.41406 48.0036L2.42242 54.124L38.9887 38.6531L41.6499 23.6924L1.41406 48.0036Z" fill="#C42E2C"/>
<path d="M249.803 20.5127H250.2C250.356 20.5127 250.481 20.4649 250.576 20.3655C250.672 20.2661 250.717 20.1262 250.717 19.9481C250.717 19.7635 250.672 19.6245 250.576 19.5264C250.481 19.4288 250.356 19.3803 250.2 19.3803H249.803V20.5127ZM249.63 18.7627H249.803H250.177C250.578 18.7627 250.887 18.8709 251.1 19.0875C251.313 19.3065 251.422 19.5917 251.422 19.9479C251.422 20.3017 251.312 20.5893 251.094 20.8082C251.026 20.8766 250.949 20.9344 250.863 20.982L251.509 22.2544H250.74L250.207 21.1367H250.177H249.803V22.2591H249.101V18.7627H249.63ZM250.182 23.2863C250.626 23.2863 251.005 23.2113 251.32 23.0636C251.636 22.9165 251.878 22.7021 252.045 22.4223C252.213 22.1408 252.297 21.8043 252.297 21.4112V19.739C252.297 19.3122 252.213 18.9478 252.047 18.6454C251.881 18.3431 251.642 18.111 251.326 17.9519C251.01 17.7932 250.63 17.7143 250.182 17.7143C249.736 17.7143 249.356 17.7933 249.04 17.9519C248.724 18.1109 248.483 18.3431 248.317 18.6454C248.151 18.9478 248.069 19.3122 248.069 19.739V21.4112C248.069 21.8043 248.154 22.1408 248.32 22.4223C248.489 22.702 248.728 22.9163 249.046 23.0636C249.362 23.2113 249.74 23.2863 250.182 23.2863ZM250.182 23.9928C249.592 23.9928 249.086 23.8916 248.663 23.6902C248.241 23.4875 247.919 23.1928 247.699 22.8052C247.477 22.4183 247.367 21.9525 247.367 21.4112V19.739C247.367 19.1736 247.477 18.692 247.699 18.291C247.918 17.8908 248.241 17.5864 248.659 17.3773C249.08 17.1665 249.588 17.0632 250.183 17.0632C250.778 17.0632 251.284 17.1665 251.705 17.3773C252.125 17.5862 252.446 17.8908 252.666 18.291C252.889 18.692 252.999 19.1736 252.999 19.739V21.4112C252.999 21.9525 252.889 22.4183 252.666 22.8052C252.446 23.1926 252.124 23.4875 251.704 23.6902C251.281 23.8914 250.775 23.9928 250.183 23.9928H250.182Z" fill="#F4F4EF"/>
<path d="M138.999 56.7847H138.075V48.679H138.999V56.7847ZM134.679 51.9405H135.787C136.15 51.9405 136.458 52.0106 136.711 52.1497C136.967 52.2881 137.162 52.492 137.294 52.7562C137.427 53.0226 137.494 53.3425 137.494 53.7193V55.04C137.494 55.4072 137.427 55.7209 137.292 55.9818C137.156 56.2424 136.961 56.4404 136.706 56.5792C136.452 56.7163 136.146 56.7847 135.787 56.7847H134.679H134.336H133.754V48.679H134.679V51.9406L134.679 51.9405ZM134.679 55.9092H135.832C135.984 55.9092 136.116 55.8733 136.227 55.803C136.341 55.7326 136.426 55.6318 136.483 55.5004C136.54 55.367 136.568 55.209 136.568 55.023V53.7307C136.568 53.5367 136.54 53.3715 136.483 53.2344C136.426 53.0972 136.341 52.9924 136.231 52.922C136.12 52.8516 135.987 52.8155 135.832 52.8155H134.679V55.9092ZM130.904 48.6789H131.828V56.7846H130.904V53.2282H129.047V56.7846H128.116V48.6789H129.047V52.3534H130.904V48.6789ZM123.624 51.9405H124.844C125.204 51.9405 125.513 52.0106 125.768 52.1497C126.024 52.2881 126.216 52.492 126.351 52.7562C126.483 53.0226 126.549 53.3425 126.549 53.7193V55.04C126.549 55.4072 126.481 55.7209 126.347 55.9818C126.213 56.2424 126.018 56.4404 125.762 56.5792C125.507 56.7163 125.201 56.7847 124.844 56.7847H123.624H123.282H122.699V48.679H123.624V51.9406V51.9405ZM123.624 55.9092H124.887C125.038 55.9092 125.171 55.8733 125.284 55.803C125.395 55.7326 125.481 55.6318 125.537 55.5004C125.596 55.367 125.625 55.209 125.625 55.023V53.7307C125.625 53.5367 125.596 53.3715 125.537 53.2344C125.481 53.0972 125.397 52.9924 125.286 52.922C125.176 52.8516 125.042 52.8155 124.887 52.8155H123.624V55.9092H123.624ZM116.834 55.8866H116.894C117.01 55.8866 117.108 55.8579 117.189 55.801C117.271 55.7437 117.333 55.6622 117.377 55.5574C117.422 55.4546 117.444 55.3292 117.444 55.1841V48.6789H118.031H118.369H119.848H120.353H120.773V56.7846H119.848V49.5539H118.369V55.2506C118.369 55.5627 118.314 55.8348 118.205 56.0692C118.097 56.3014 117.94 56.4786 117.734 56.5998C117.53 56.7234 117.288 56.7844 117.006 56.7844H116.834V55.8864L116.834 55.8866ZM113.585 54.0427L112.786 49.9558L111.987 54.0427H113.585ZM112.304 48.6789H113.268L115.129 56.7846H114.121L113.756 54.9178H111.816L111.451 56.7846H110.443L112.304 48.6789ZM108.091 48.6789H109.016V56.7846H108.091V53.2282H106.235V56.7846H105.304V48.6789H106.235V52.3534H108.091V48.6789ZM101.489 56.8684C101.067 56.8684 100.706 56.7886 100.407 56.6285C100.108 56.4686 99.8797 56.237 99.7226 55.9325C99.5656 55.6278 99.4881 55.2588 99.4881 54.8286V50.6313C99.4881 50.1991 99.5656 49.8318 99.7226 49.5276C99.8797 49.2213 100.108 48.9909 100.407 48.8325C100.706 48.6747 101.067 48.595 101.489 48.595C101.909 48.595 102.27 48.6749 102.569 48.8325C102.867 48.9909 103.096 49.2213 103.253 49.5276C103.41 49.8316 103.487 50.199 103.487 50.6313V54.8286C103.487 55.2589 103.41 55.6278 103.253 55.9325C103.096 56.237 102.867 56.4686 102.569 56.6285C102.27 56.7886 101.909 56.8684 101.489 56.8684ZM101.489 55.959C101.717 55.959 101.912 55.9168 102.073 55.8312C102.234 55.7457 102.355 55.6218 102.438 55.4582C102.521 55.2945 102.563 55.0967 102.563 54.8666V50.5967C102.563 50.3663 102.521 50.1684 102.438 50.005C102.355 49.8432 102.234 49.7176 102.073 49.6319C101.912 49.5464 101.717 49.5042 101.489 49.5042C101.262 49.5042 101.069 49.5464 100.908 49.6319C100.747 49.7174 100.626 49.8432 100.541 50.005C100.456 50.1683 100.413 50.3661 100.413 50.5967V54.8666C100.413 55.0965 100.456 55.2944 100.541 55.4582C100.626 55.6217 100.747 55.7456 100.908 55.8312C101.069 55.9168 101.262 55.959 101.489 55.959ZM96.6862 56.779V51.1953L94.3149 56.779H93.6061V48.6787H94.4815V54.301L96.8644 48.6787H97.5619V56.779H96.6863H96.6862ZM90.029 56.8683C89.6374 56.8683 89.301 56.7861 89.0211 56.6228C88.7415 56.4592 88.5259 56.2232 88.3782 55.9131C88.2305 55.6012 88.1571 55.2298 88.1571 54.7944V50.6746C88.1571 50.2369 88.2305 49.8618 88.3782 49.5521C88.5259 49.2417 88.7392 49.0041 89.0195 48.8403C89.2973 48.6764 89.6339 48.5949 90.0291 48.5949C90.4247 48.5949 90.7628 48.6764 91.0429 48.8403C91.3248 49.004 91.5381 49.2417 91.6839 49.5521C91.8295 49.8618 91.9015 50.235 91.9015 50.6688V50.9865H90.9709V50.6688C90.9709 50.4195 90.9351 50.2082 90.8631 50.0333C90.7911 49.8583 90.6836 49.727 90.5415 49.6356C90.3999 49.5439 90.2297 49.4985 90.0291 49.4985C89.8345 49.4985 89.6662 49.5439 89.5263 49.6356C89.3843 49.727 89.2768 49.8604 89.2007 50.037C89.1252 50.2122 89.0875 50.4252 89.0875 50.6745V54.7942C89.0875 55.0397 89.1254 55.2491 89.2007 55.424C89.2766 55.5989 89.3842 55.7322 89.5263 55.8254C89.6662 55.9186 89.8347 55.9641 90.0291 55.9641C90.2297 55.9641 90.3999 55.9186 90.5415 55.8254C90.6835 55.7323 90.791 55.5989 90.8631 55.424C90.9349 55.2489 90.9709 55.0395 90.9709 54.7942V54.4703H91.9015V54.7942C91.9015 55.2295 91.8295 55.6009 91.6839 55.9129C91.5382 56.2231 91.3249 56.459 91.0429 56.6226C90.7628 56.786 90.4247 56.8681 90.0291 56.8681L90.029 56.8683ZM84.6898 56.8683C84.2982 56.8683 83.9618 56.7861 83.6816 56.6228C83.4018 56.4592 83.1862 56.2232 83.0389 55.9131C82.8913 55.6012 82.8176 55.2298 82.8176 54.7944V50.6746C82.8176 50.2369 82.8913 49.8618 83.0389 49.5521C83.1862 49.2417 83.3997 49.0041 83.6802 48.8403C83.9578 48.6764 84.2947 48.5949 84.6899 48.5949C85.085 48.5949 85.4233 48.6764 85.7032 48.8403C85.9851 49.004 86.1984 49.2417 86.3442 49.5521C86.4898 49.8618 86.5618 50.235 86.5618 50.6688V50.9865H85.6317V50.6688C85.6317 50.4195 85.5959 50.2082 85.5234 50.0333C85.4516 49.8583 85.344 49.727 85.2019 49.6356C85.0605 49.5439 84.8901 49.4985 84.6899 49.4985C84.495 49.4985 84.3267 49.5439 84.1866 49.6356C84.0451 49.727 83.9372 49.8604 83.8612 50.037C83.7857 50.2122 83.748 50.4252 83.748 50.6745V54.7942C83.748 55.0397 83.7859 55.2491 83.8612 55.424C83.937 55.5989 84.045 55.7322 84.1866 55.8254C84.3267 55.9186 84.495 55.9641 84.6899 55.9641C84.8901 55.9641 85.0607 55.9186 85.2019 55.8254C85.3438 55.7323 85.4515 55.5989 85.5234 55.424C85.5957 55.2489 85.6317 55.0395 85.6317 54.7942V54.4703H86.5618V54.7942C86.5618 55.2295 86.49 55.6009 86.3442 55.9129C86.1986 56.2231 85.9853 56.459 85.7032 56.6226C85.4233 56.786 85.085 56.8681 84.6899 56.8681L84.6898 56.8683ZM77.711 48.6787H78.2591H78.6355H81.1675V49.5539H78.6355V52.3185H80.8912V53.1941H78.6355V55.9091H81.1675V56.7846H78.6355H78.2591H77.711V48.6789V48.6787ZM72.7706 54.9853V50.1983C72.3666 50.2581 72.0377 50.401 71.7851 50.6272C71.4411 50.9335 71.269 51.3657 71.269 51.9228V53.2603C71.269 53.8182 71.4411 54.2501 71.7851 54.5585C72.0376 54.7842 72.3665 54.9263 72.7706 54.9853ZM73.6952 50.1993V54.9845C74.0966 54.9252 74.4238 54.7833 74.6765 54.5585C75.0189 54.2501 75.1907 53.8181 75.1907 53.2603V51.9228C75.1907 51.3657 75.019 50.9335 74.6765 50.6272C74.424 50.4022 74.0966 50.2592 73.6952 50.1993ZM72.7706 48.4009H73.6952V49.2869C74.1085 49.3271 74.4748 49.4243 74.7921 49.5769C75.2253 49.7844 75.5539 50.0865 75.7788 50.4846C76.0041 50.8823 76.1173 51.3614 76.1173 51.9228V53.2603C76.1173 53.8219 76.0041 54.3017 75.7788 54.699C75.5539 55.0967 75.2253 55.3995 74.7921 55.6086C74.4748 55.7611 74.1087 55.8582 73.6952 55.8986V56.7846H72.7706V55.8995C72.3544 55.8591 71.9864 55.7621 71.6679 55.6086C71.235 55.3996 70.9078 55.0967 70.6808 54.699C70.4557 54.3016 70.3446 53.8219 70.3446 53.2603V51.9228C70.3446 51.3614 70.4557 50.8822 70.6808 50.4846C70.9079 50.0865 71.235 49.7844 71.6679 49.5769C71.9864 49.4237 72.3544 49.3265 72.7706 49.2863V48.4009ZM66.8618 56.8684C66.4402 56.8684 66.0788 56.7886 65.7802 56.6285C65.4815 56.4686 65.2525 56.237 65.0957 55.9325C64.9386 55.6278 64.8613 55.2588 64.8613 54.8286V50.6313C64.8613 50.1991 64.9386 49.8318 65.0957 49.5276C65.2525 49.2213 65.4815 48.9909 65.7802 48.8325C66.0788 48.6747 66.4402 48.595 66.8618 48.595C67.2818 48.595 67.6429 48.6749 67.9415 48.8325C68.2401 48.9909 68.4692 49.2213 68.626 49.5276C68.7829 49.8316 68.8604 50.199 68.8604 50.6313V54.8286C68.8604 55.2589 68.7829 55.6278 68.626 55.9325C68.4692 56.237 68.2401 56.4686 67.9415 56.6285C67.643 56.7886 67.2818 56.8684 66.8618 56.8684ZM66.8618 55.959C67.0904 55.959 67.2852 55.9168 67.446 55.8312C67.6069 55.7457 67.7277 55.6218 67.8112 55.4582C67.894 55.2945 67.9358 55.0967 67.9358 54.8666V50.5967C67.9358 50.3663 67.894 50.1684 67.8112 50.005C67.7277 49.8432 67.6069 49.7176 67.446 49.6319C67.2852 49.5464 67.0906 49.5042 66.8618 49.5042C66.6347 49.5042 66.4417 49.5464 66.2813 49.6319C66.1205 49.7174 65.9997 49.8432 65.9144 50.005C65.8294 50.1683 65.7857 50.3661 65.7857 50.5967V54.8666C65.7857 55.0965 65.8292 55.2944 65.9144 55.4582C65.9995 55.6217 66.1205 55.7456 66.2813 55.8312C66.4419 55.9168 66.6348 55.959 66.8618 55.959ZM60.1211 48.6787H61.3672C61.7301 48.6787 62.0385 48.7491 62.2941 48.888C62.5472 49.0268 62.7418 49.2307 62.8743 49.4949C63.0086 49.761 63.0749 50.0829 63.0749 50.458V51.8961C63.0749 52.2634 63.0067 52.5775 62.8723 52.8382C62.738 53.0985 62.5434 53.2966 62.2879 53.4338C62.0328 53.5726 61.7264 53.6413 61.3672 53.6413H60.1211V56.7846H59.1965V48.6789H59.7789H60.1211V48.6787ZM60.1211 52.7658H61.4013C61.5528 52.7658 61.6854 52.7297 61.7965 52.6593C61.9103 52.5889 61.9955 52.4881 62.0518 52.3547C62.1086 52.2234 62.1389 52.0656 62.1389 51.8791V50.4694C62.1389 50.2749 62.1086 50.1094 62.0518 49.9723C61.9955 49.8355 61.9122 49.7308 61.8002 49.6604C61.689 49.5898 61.5564 49.5539 61.4013 49.5539H60.1211V52.7659V52.7658ZM56.739 48.6787H57.2703V56.7844H56.3457V49.5538H54.4832V56.7844H53.5586V48.6787H54.2184H54.4832H56.3457H56.739ZM141.525 48.6787H141.901H144.433V49.5539H141.901V52.3185H144.158V53.1941H141.901V55.9091H144.433V56.7846H141.901H141.525H140.977V48.6789H141.525V48.6787ZM185.635 51.9403H186.743C187.106 51.9403 187.414 52.0104 187.668 52.1496C187.923 52.2879 188.118 52.4918 188.25 52.7561C188.382 53.0225 188.45 53.3424 188.45 53.7191V55.0398C188.45 55.407 188.382 55.7208 188.248 55.9816C188.112 56.2422 187.917 56.4402 187.662 56.579C187.409 56.7162 187.102 56.7846 186.743 56.7846H185.635H185.292H184.71V48.6789H185.635V51.9405L185.635 51.9403ZM185.635 55.9091H186.789C186.939 55.9091 187.072 55.8731 187.184 55.8029C187.297 55.7325 187.382 55.6317 187.439 55.5003C187.496 55.3668 187.524 55.2089 187.524 55.0229V53.7305C187.524 53.5365 187.496 53.3713 187.439 53.2342C187.382 53.0971 187.297 52.9923 187.187 52.9219C187.076 52.8515 186.943 52.8154 186.789 52.8154H185.635V55.9091ZM178.486 51.3907V56.7846H177.599V48.6789H178.474L180.191 53.9939L181.908 48.6789H182.784V56.7846H181.897V51.3907L180.191 56.588L178.486 51.3907H178.486ZM172.492 48.6787H173.041H173.417H175.949V49.5539H173.417V52.3185H175.673V53.1941H173.417V55.9091H175.949V56.7846H173.417H173.041H172.492V48.6789V48.6787ZM169.407 49.5539V56.7846H168.482V49.5539H166.986V48.6787H170.897V49.5539H169.407ZM163.852 56.8683C163.46 56.8683 163.124 56.7861 162.844 56.6228C162.564 56.4592 162.349 56.2232 162.201 55.9131C162.053 55.6012 161.98 55.2298 161.98 54.7944V50.6746C161.98 50.2369 162.053 49.8618 162.201 49.5521C162.349 49.2417 162.562 49.0041 162.842 48.8403C163.12 48.6764 163.457 48.5949 163.852 48.5949C164.247 48.5949 164.586 48.6764 164.865 48.8403C165.147 49.004 165.361 49.2417 165.507 49.5521C165.652 49.8618 165.724 50.235 165.724 50.6688V50.9865H164.794V50.6688C164.794 50.4195 164.758 50.2082 164.686 50.0333C164.614 49.8583 164.506 49.727 164.364 49.6356C164.223 49.5439 164.053 49.4985 163.852 49.4985C163.657 49.4985 163.489 49.5439 163.349 49.6356C163.208 49.727 163.099 49.8604 163.024 50.037C162.948 50.2122 162.91 50.4252 162.91 50.6745V54.7942C162.91 55.0397 162.948 55.2491 163.024 55.424C163.099 55.5989 163.207 55.7322 163.349 55.8254C163.489 55.9186 163.657 55.9641 163.852 55.9641C164.053 55.9641 164.223 55.9186 164.364 55.8254C164.506 55.7323 164.614 55.5989 164.686 55.424C164.758 55.2489 164.794 55.0395 164.794 54.7942V54.4703H165.724V54.7942C165.724 55.2295 165.652 55.6009 165.507 55.9129C165.361 56.2231 165.147 56.459 164.865 56.6226C164.586 56.786 164.247 56.8681 163.852 56.8681L163.852 56.8683ZM152.52 56.8683C152.129 56.8683 151.793 56.7861 151.513 56.6228C151.233 56.4592 151.017 56.2232 150.87 55.9131C150.722 55.6012 150.649 55.2298 150.649 54.7944V50.6746C150.649 50.2369 150.722 49.8618 150.87 49.5521C151.017 49.2417 151.231 49.0041 151.511 48.8403C151.789 48.6764 152.125 48.5949 152.521 48.5949C152.916 48.5949 153.254 48.6764 153.534 48.8403C153.816 49.004 154.03 49.2417 154.175 49.5521C154.321 49.8618 154.393 50.235 154.393 50.6688V50.9865H153.462V50.6688C153.462 50.4195 153.427 50.2082 153.355 50.0333C153.283 49.8583 153.175 49.727 153.033 49.6356C152.891 49.5439 152.721 49.4985 152.521 49.4985C152.326 49.4985 152.158 49.5439 152.018 49.6356C151.876 49.727 151.768 49.8604 151.692 50.037C151.617 50.2122 151.579 50.4252 151.579 50.6745V54.7942C151.579 55.0397 151.617 55.2491 151.692 55.424C151.768 55.5989 151.876 55.7322 152.018 55.8254C152.158 55.9186 152.326 55.9641 152.521 55.9641C152.721 55.9641 152.891 55.9186 153.033 55.8254C153.175 55.7323 153.283 55.5989 153.355 55.424C153.427 55.2489 153.462 55.0395 153.462 54.7942V54.4703H154.393V54.7942C154.393 55.2295 154.321 55.6009 154.175 55.9129C154.03 56.2231 153.816 56.459 153.534 56.6226C153.254 56.786 152.916 56.8681 152.521 56.8681L152.52 56.8683ZM159.178 56.779V51.1953L156.807 56.779H156.097V48.6787H156.973V54.301L159.356 48.6787H160.053V56.779H159.178ZM189.956 56.7846H189.031V48.6789H189.956V56.7846ZM244.937 52.6422V49.5485H243.94C243.726 49.5485 243.541 49.59 243.388 49.674C243.235 49.7576 243.118 49.8812 243.036 50.045C242.955 50.2084 242.915 50.4028 242.915 50.6313V51.6227C242.915 51.8374 242.955 52.022 243.036 52.1742C243.118 52.3266 243.235 52.4425 243.388 52.5225C243.541 52.6023 243.726 52.6424 243.94 52.6424H244.937V52.6422ZM233.39 48.6789H234.314V56.7846H233.39V53.2282H231.533V56.7846H230.603V48.6789H231.533V52.3534H233.39V48.6789ZM225.496 48.6789H226.044H226.42H228.953V49.5541H226.42V52.3186H228.676V53.1943H226.42V55.9092H228.953V56.7847H226.42H226.044H225.496V48.679V48.6789ZM219.26 55.9092H220.296V48.6789H221.221V55.9092H222.251V48.6789H223.178V55.9092H223.959V58.4628H223.038V56.7847H222.651H222.252H221.221H220.296H219.26H219.039H218.336V48.679H219.261V55.9094L219.26 55.9092ZM213.229 48.6789H213.777H214.153H216.685V49.5541H214.153V52.3186H216.409V53.1943H214.153V55.9092H216.685V56.7847H214.153H213.777H213.229V48.679V48.6789ZM208.575 48.6789H209.695C210.043 48.6789 210.338 48.7376 210.584 48.8558C210.83 48.9718 211.017 49.1431 211.144 49.3673C211.272 49.5921 211.334 49.8644 211.334 50.1837V51.1543C211.334 51.4113 211.301 51.6378 211.231 51.8335C211.159 52.0314 211.058 52.193 210.928 52.3185C210.797 52.446 210.637 52.5316 210.448 52.5755C210.659 52.6137 210.839 52.6972 210.987 52.8265C211.134 52.9562 211.246 53.1254 211.323 53.331C211.401 53.5365 211.44 53.7781 211.44 54.0521V55.2395C211.44 55.5667 211.378 55.8463 211.255 56.0765C211.13 56.3072 210.951 56.4823 210.712 56.6038C210.474 56.7234 210.185 56.7844 209.845 56.7844H208.575H208.317H207.651V48.6787H208.317H208.575V48.6789ZM208.575 52.1189H209.706C209.931 52.1189 210.105 52.0411 210.227 51.8867C210.349 51.7328 210.41 51.5136 210.41 51.2324V50.241C210.41 50.0201 210.349 49.8509 210.227 49.7328C210.105 49.6133 209.935 49.5539 209.718 49.5539H208.575V52.1188V52.1189ZM208.575 55.9091H209.761C210.001 55.9091 210.186 55.8482 210.319 55.7285C210.45 55.6066 210.516 55.4374 210.516 55.2189V53.9703C210.516 53.7647 210.482 53.5897 210.412 53.4433C210.344 53.2968 210.249 53.1844 210.128 53.1086C210.005 53.0322 209.865 52.9941 209.706 52.9941H208.575V55.9092V55.9091ZM204.074 56.8684C203.683 56.8684 203.346 56.7863 203.066 56.6229C202.786 56.4593 202.571 56.2234 202.423 55.9132C202.276 55.6013 202.202 55.23 202.202 54.7945V50.6748C202.202 50.237 202.276 49.862 202.423 49.5522C202.571 49.2419 202.784 49.0043 203.065 48.8405C203.342 48.6765 203.679 48.595 204.074 48.595C204.469 48.595 204.808 48.6765 205.088 48.8405C205.369 49.0041 205.583 49.2419 205.729 49.5522C205.875 49.862 205.946 50.2352 205.946 50.6689V50.9867H205.016V50.6689C205.016 50.4196 204.98 50.2084 204.908 50.0335C204.836 49.8584 204.728 49.7271 204.587 49.6358C204.445 49.5441 204.275 49.4986 204.074 49.4986C203.879 49.4986 203.711 49.5441 203.571 49.6358C203.43 49.7271 203.322 49.8606 203.246 50.0372C203.17 50.2124 203.133 50.4253 203.133 50.6746V54.7944C203.133 55.0398 203.171 55.2492 203.246 55.4241C203.322 55.599 203.429 55.7323 203.571 55.8255C203.711 55.9188 203.879 55.9642 204.074 55.9642C204.275 55.9642 204.445 55.9188 204.587 55.8255C204.728 55.7325 204.836 55.599 204.908 55.4241C204.98 55.2491 205.016 55.0397 205.016 54.7944V54.4705H205.946V54.7944C205.946 55.2297 205.875 55.601 205.729 55.9131C205.583 56.2232 205.37 56.4592 205.088 56.6228C204.808 56.7861 204.469 56.8683 204.074 56.8683L204.074 56.8684ZM198.498 56.8684C198.077 56.8684 197.716 56.7886 197.417 56.6285C197.118 56.4686 196.889 56.237 196.732 55.9325C196.575 55.6278 196.498 55.2588 196.498 54.8286V50.6313C196.498 50.1991 196.575 49.8318 196.732 49.5276C196.889 49.2213 197.118 48.9909 197.417 48.8325C197.716 48.6747 198.077 48.595 198.498 48.595C198.918 48.595 199.279 48.6749 199.578 48.8325C199.877 48.9909 200.105 49.2213 200.263 49.5276C200.42 49.8316 200.497 50.199 200.497 50.6313V54.8286C200.497 55.2589 200.42 55.6278 200.263 55.9325C200.105 56.237 199.877 56.4686 199.578 56.6285C199.279 56.7886 198.918 56.8684 198.498 56.8684ZM198.498 55.959C198.727 55.959 198.922 55.9168 199.083 55.8312C199.244 55.7457 199.364 55.6218 199.447 55.4582C199.531 55.2945 199.572 55.0967 199.572 54.8666V50.5967C199.572 50.3663 199.531 50.1684 199.447 50.005C199.364 49.8432 199.244 49.7176 199.083 49.6319C198.922 49.5464 198.727 49.5042 198.498 49.5042C198.272 49.5042 198.078 49.5464 197.918 49.6319C197.757 49.7174 197.636 49.8432 197.551 50.005C197.466 50.1683 197.422 50.3661 197.422 50.5967V54.8666C197.422 55.0965 197.466 55.2944 197.551 55.4582C197.636 55.6217 197.757 55.7456 197.918 55.8312C198.079 55.9168 198.272 55.959 198.498 55.959ZM239.321 56.779V51.1953L236.95 56.779H236.241V48.6787H237.116V54.301L239.499 48.6787H240.197V56.779H239.321ZM244.937 48.6728H245.37H245.863V56.7846H244.937V53.523H244.067L242.982 56.7846H241.985L243.21 53.4097C243.113 53.3791 243.02 53.343 242.933 53.3003C242.626 53.1521 242.392 52.9353 242.231 52.6516C242.07 52.3661 241.991 52.0252 241.991 51.6281V50.5128C241.991 50.1267 242.07 49.7954 242.231 49.518C242.392 49.2417 242.626 49.0305 242.933 48.888C243.239 48.7451 243.605 48.6727 244.035 48.6727H244.937V48.6728Z" fill="#C42E2C"/>
<path d="M0 39.4225L1.04496 45.7629L42.4487 19.2007L45.8634 0L0 39.4225Z" fill="#C42E2C"/>
</g>
<defs>
<clipPath id="clip0_3069_10270">
<rect width="253" height="62" fill="white"/>
</clipPath>
</defs>
</svg>
