<svg width="260" height="62" viewBox="0 0 260 62" fill="none" xmlns="http://www.w3.org/2000/svg">
<g clip-path="url(#clip0_3009_12352)">
<path d="M150.713 30.7386L154.492 42.3198H150.83L147.496 31.4138L147.27 31.4157H144.63V42.3198H141.281V16.5241H142.851H144.63H147.27C148.636 16.5241 149.802 16.7536 150.776 17.2086C151.75 17.6618 152.496 18.3336 153.007 19.2102C153.518 20.0949 153.77 21.1474 153.77 22.3752V25.3894C153.77 26.6534 153.518 27.7368 153.007 28.6448C152.496 29.5458 151.75 30.236 150.776 30.7084L150.713 30.7388L150.713 30.7386ZM144.63 28.2273H147.571C148.166 28.2273 148.683 28.1125 149.11 27.8883C149.543 27.665 149.868 27.338 150.09 26.9139C150.313 26.4907 150.421 25.9762 150.421 25.371V22.7504C150.421 22.1091 150.313 21.5647 150.09 21.1106C149.868 20.6511 149.543 20.3063 149.11 20.0701C148.683 19.8338 148.166 19.7197 147.571 19.7197H144.63V28.2271V28.2273ZM126.185 16.5419H127.928H129.534H137.176V19.7375H129.534V27.9245H136.299V31.1138H129.534V39.1306H137.176V42.3198H129.534H127.928H126.185V16.5419ZM117.54 19.7375V42.3198H114.191V19.7375H109.645V16.5419H122.08V19.7375H117.54ZM99.3949 42.5867C98.0541 42.5867 96.9236 42.351 95.9916 41.8841C95.0653 41.4181 94.3612 40.7349 93.8807 39.827C93.3993 38.9259 93.1587 37.8238 93.1587 36.5239V35.2462H96.5026V36.3959C96.5026 37.3335 96.7548 38.0483 97.254 38.55C97.7532 39.0527 98.4627 39.3068 99.3951 39.3068C100.297 39.3068 100.988 39.0588 101.47 38.5624C101.957 38.0665 102.197 37.3466 102.197 36.3959V34.1451C102.197 33.5216 102.041 32.9894 101.734 32.5538C101.433 32.1115 101.048 31.7548 100.592 31.4762C100.134 31.204 99.4971 30.8779 98.6915 30.5141C98.6666 30.5021 98.6431 30.4904 98.6195 30.4842C98.5956 30.478 98.5711 30.4717 98.5474 30.4597L98.3007 30.3508C97.2182 29.8544 96.3345 29.3709 95.6486 28.898C94.9634 28.4268 94.3801 27.773 93.8985 26.9317C93.4177 26.0913 93.1771 25.0319 93.1771 23.7436V22.2546C93.1771 20.9778 93.4115 19.8882 93.8865 18.9988C94.3617 18.1097 95.0658 17.4322 95.9921 16.9715C96.924 16.5055 98.0483 16.2764 99.377 16.2764C100.67 16.2764 101.764 16.512 102.66 16.9775C103.563 17.4444 104.242 18.1279 104.705 19.035C105.167 19.9371 105.403 21.032 105.403 22.321V23.6704H102.053V22.4665C102.053 21.5227 101.825 20.7963 101.367 20.3C100.911 19.8035 100.242 19.5552 99.3769 19.5552C98.4506 19.5552 97.7411 19.7918 97.2542 20.2641C96.7671 20.742 96.5201 21.4133 96.5201 22.2848V23.9004C96.5201 24.5479 96.6766 25.0982 96.9775 25.5402C97.2842 25.9817 97.669 26.3392 98.1256 26.6107C98.583 26.8831 99.2142 27.1987 100.008 27.555C100.093 27.5855 100.171 27.6223 100.237 27.658C100.309 27.6944 100.387 27.7311 100.465 27.7667C100.526 27.7906 100.592 27.8155 100.651 27.8454C100.718 27.8764 100.778 27.9004 100.838 27.9243C101.86 28.3843 102.684 28.8264 103.303 29.2435C103.929 29.6674 104.458 30.2723 104.891 31.0651C105.324 31.8581 105.541 32.8866 105.541 34.1628V36.5238C105.541 37.8237 105.307 38.9259 104.831 39.8268C104.35 40.7347 103.659 41.418 102.738 41.8839C101.825 42.3508 100.712 42.5866 99.3952 42.5866L99.3949 42.5867ZM84.2811 36.6986H78.9297L77.7485 42.3198H74.1525L80.0696 16.5419H83.1367L89.0537 42.3198H85.4638L84.281 36.6986H84.2811ZM79.5955 33.5275H83.6138L81.6034 23.9688L79.5955 33.5275ZM239.975 27.0808L245.864 42.3198H242.135L237.893 31.1761L235.612 35.6622V42.3198H232.331V17.0631H235.612V28.4958L241.481 17.0631H245.07L239.975 27.0808ZM222.393 42.5809C221.174 42.5809 220.125 42.3262 219.253 41.8161C218.381 41.3058 217.709 40.5709 217.251 39.6048C216.79 38.632 216.561 37.4757 216.561 36.1187V23.2831C216.561 21.9191 216.79 20.7519 217.251 19.7847C217.709 18.8184 218.376 18.0771 219.247 17.5676C220.114 17.0576 221.162 16.8024 222.393 16.8024C223.626 16.8024 224.68 17.0574 225.552 17.5676C226.429 18.0771 227.096 18.8184 227.55 19.7847C228.003 20.7521 228.227 21.9133 228.227 23.2651V24.3436H224.916V23.2651C224.916 22.5839 224.815 21.9969 224.621 21.51C224.426 21.0245 224.139 20.6561 223.76 20.4017C223.378 20.1471 222.924 20.016 222.394 20.016C221.863 20.016 221.416 20.1469 221.038 20.4017C220.667 20.6561 220.378 21.0245 220.178 21.51C219.979 21.9969 219.873 22.589 219.873 23.2831V36.1187C219.873 36.8002 219.979 37.3871 220.178 37.874C220.378 38.3599 220.667 38.7336 221.038 38.9824C221.416 39.2371 221.863 39.3682 222.394 39.3682C222.924 39.3682 223.378 39.2371 223.76 38.9824C224.139 38.7334 224.427 38.3599 224.621 37.874C224.815 37.3871 224.916 36.8002 224.916 36.1187V35.0391H228.227V36.1187C228.227 37.4757 228.003 38.632 227.55 39.6048C227.096 40.5709 226.429 41.3058 225.552 41.8161C224.68 42.326 223.626 42.5809 222.393 42.5809ZM190.455 30.9716L194.16 42.3198H190.471L187.203 31.6353L187.082 31.6366H184.496V42.32H181.215V17.0454H182.753H184.496H187.082C188.42 17.0454 189.563 17.271 190.519 17.7159C191.473 18.1601 192.203 18.8185 192.703 19.6777C193.205 20.5442 193.452 21.5757 193.452 22.7797V25.7312C193.452 26.9705 193.205 28.0322 192.703 28.9217C192.203 29.8045 191.473 30.4804 190.519 30.9431L190.455 30.9717L190.455 30.9716ZM184.496 28.5125H187.378C187.961 28.5125 188.468 28.3991 188.886 28.18C189.31 27.9611 189.628 27.6413 189.845 27.2251C190.064 26.8106 190.17 26.3068 190.17 25.7142V23.146C190.17 22.5181 190.064 21.9845 189.845 21.5396C189.628 21.0897 189.31 20.7519 188.886 20.5202C188.468 20.2892 187.961 20.1758 187.378 20.1758H184.496V28.5123V28.5125ZM164.926 17.0631H177.111V20.1938H172.662V42.3198H169.381V20.1938H164.926V17.0631H164.926ZM202.998 33.7873H207.017L205.007 24.2292L202.998 33.7873ZM207.684 36.9592H202.333L201.152 42.581H197.556L203.473 16.8027H206.54L212.457 42.581H208.867L207.684 36.9592ZM67.1078 16.5417H70.0483V42.3197H66.9816V25.7614L62.88 38.1027H61.8038H60.7273L56.6255 25.7614V42.3197H53.5596V16.5417H56.4998L61.8038 31.8713L67.1078 16.5417Z" fill="#2E2D2D"/>
<path d="M2.74658 56.089L3.72095 62L35.9584 55.6956L38.33 42.3596L2.74658 56.089Z" fill="#C42E2C"/>
<path d="M1.41455 48.0036L2.42291 54.124L38.9891 38.6531L41.6504 23.6924L1.41455 48.0036Z" fill="#C42E2C"/>
<path d="M249.804 20.5127H250.2C250.356 20.5127 250.481 20.4649 250.577 20.3655C250.672 20.2661 250.718 20.1262 250.718 19.9481C250.718 19.7635 250.672 19.6245 250.577 19.5264C250.481 19.4288 250.356 19.3803 250.2 19.3803H249.804V20.5127ZM249.63 18.7627H249.804H250.177C250.579 18.7627 250.887 18.8709 251.101 19.0875C251.314 19.3065 251.422 19.5917 251.422 19.9479C251.422 20.3017 251.312 20.5893 251.095 20.8082C251.026 20.8766 250.949 20.9344 250.863 20.982L251.51 22.2544H250.741L250.208 21.1367H250.177H249.804V22.2591H249.102V18.7627H249.63ZM250.183 23.2863C250.626 23.2863 251.005 23.2113 251.321 23.0636C251.637 22.9165 251.878 22.7021 252.046 22.4223C252.213 22.1408 252.298 21.8043 252.298 21.4112V19.739C252.298 19.3122 252.213 18.9478 252.048 18.6454C251.882 18.3431 251.642 18.111 251.327 17.9519C251.011 17.7932 250.63 17.7143 250.183 17.7143C249.737 17.7143 249.356 17.7933 249.04 17.9519C248.725 18.1109 248.483 18.3431 248.317 18.6454C248.152 18.9478 248.07 19.3122 248.07 19.739V21.4112C248.07 21.8043 248.154 22.1408 248.321 22.4223C248.489 22.702 248.729 22.9163 249.046 23.0636C249.363 23.2113 249.741 23.2863 250.183 23.2863ZM250.183 23.9928C249.592 23.9928 249.086 23.8916 248.664 23.6902C248.241 23.4875 247.919 23.1928 247.699 22.8052C247.478 22.4183 247.368 21.9525 247.368 21.4112V19.739C247.368 19.1736 247.478 18.692 247.699 18.291C247.919 17.8908 248.241 17.5864 248.66 17.3773C249.081 17.1665 249.589 17.0632 250.183 17.0632C250.779 17.0632 251.285 17.1665 251.705 17.3773C252.126 17.5862 252.446 17.8908 252.667 18.291C252.89 18.692 253 19.1736 253 19.739V21.4112C253 21.9525 252.89 22.4183 252.667 22.8052C252.446 23.1926 252.125 23.4875 251.704 23.6902C251.282 23.8914 250.775 23.9928 250.183 23.9928H250.183Z" fill="#2E2D2D"/>
<path d="M139 56.7847H138.076V48.679H139V56.7847ZM134.68 51.9405H135.788C136.151 51.9405 136.459 52.0106 136.712 52.1497C136.968 52.2881 137.162 52.492 137.295 52.7562C137.428 53.0226 137.495 53.3425 137.495 53.7193V55.04C137.495 55.4072 137.428 55.7209 137.293 55.9818C137.157 56.2424 136.962 56.4404 136.707 56.5792C136.453 56.7163 136.147 56.7847 135.788 56.7847H134.68H134.337H133.755V48.679H134.68V51.9406L134.68 51.9405ZM134.68 55.9092H135.833C135.985 55.9092 136.117 55.8733 136.228 55.803C136.342 55.7326 136.427 55.6318 136.484 55.5004C136.541 55.367 136.569 55.209 136.569 55.023V53.7307C136.569 53.5367 136.541 53.3715 136.484 53.2344C136.427 53.0972 136.342 52.9924 136.232 52.922C136.121 52.8516 135.988 52.8155 135.833 52.8155H134.68V55.9092ZM130.905 48.6789H131.829V56.7846H130.905V53.2282H129.048V56.7846H128.117V48.6789H129.048V52.3534H130.905V48.6789ZM123.625 51.9405H124.845C125.205 51.9405 125.514 52.0106 125.769 52.1497C126.025 52.2881 126.217 52.492 126.352 52.7562C126.484 53.0226 126.55 53.3425 126.55 53.7193V55.04C126.55 55.4072 126.482 55.7209 126.348 55.9818C126.214 56.2424 126.019 56.4404 125.763 56.5792C125.508 56.7163 125.202 56.7847 124.845 56.7847H123.625H123.283H122.7V48.679H123.625V51.9406V51.9405ZM123.625 55.9092H124.888C125.039 55.9092 125.171 55.8733 125.285 55.803C125.396 55.7326 125.482 55.6318 125.538 55.5004C125.597 55.367 125.626 55.209 125.626 55.023V53.7307C125.626 53.5367 125.597 53.3715 125.538 53.2344C125.482 53.0972 125.398 52.9924 125.287 52.922C125.177 52.8516 125.043 52.8155 124.888 52.8155H123.625V55.9092H123.625ZM116.835 55.8866H116.895C117.011 55.8866 117.109 55.8579 117.19 55.801C117.272 55.7437 117.334 55.6622 117.378 55.5574C117.423 55.4546 117.445 55.3292 117.445 55.1841V48.6789H118.032H118.37H119.849H120.354H120.774V56.7846H119.849V49.5539H118.37V55.2506C118.37 55.5627 118.315 55.8348 118.206 56.0692C118.098 56.3014 117.941 56.4786 117.735 56.5998C117.531 56.7234 117.289 56.7844 117.007 56.7844H116.835V55.8864L116.835 55.8866ZM113.586 54.0427L112.787 49.9558L111.988 54.0427H113.586ZM112.305 48.6789H113.269L115.13 56.7846H114.122L113.757 54.9178H111.817L111.452 56.7846H110.444L112.305 48.6789ZM108.092 48.6789H109.017V56.7846H108.092V53.2282H106.236V56.7846H105.305V48.6789H106.236V52.3534H108.092V48.6789ZM101.49 56.8684C101.068 56.8684 100.707 56.7886 100.408 56.6285C100.109 56.4686 99.8807 56.237 99.7235 55.9325C99.5666 55.6278 99.4891 55.2588 99.4891 54.8286V50.6313C99.4891 50.1991 99.5666 49.8318 99.7235 49.5276C99.8807 49.2213 100.109 48.9909 100.408 48.8325C100.707 48.6747 101.068 48.595 101.49 48.595C101.91 48.595 102.271 48.6749 102.57 48.8325C102.868 48.9909 103.097 49.2213 103.254 49.5276C103.411 49.8316 103.488 50.199 103.488 50.6313V54.8286C103.488 55.2589 103.411 55.6278 103.254 55.9325C103.097 56.237 102.868 56.4686 102.57 56.6285C102.271 56.7886 101.91 56.8684 101.49 56.8684ZM101.49 55.959C101.718 55.959 101.913 55.9168 102.074 55.8312C102.235 55.7457 102.356 55.6218 102.439 55.4582C102.522 55.2945 102.564 55.0967 102.564 54.8666V50.5967C102.564 50.3663 102.522 50.1684 102.439 50.005C102.356 49.8432 102.235 49.7176 102.074 49.6319C101.913 49.5464 101.718 49.5042 101.49 49.5042C101.263 49.5042 101.07 49.5464 100.909 49.6319C100.748 49.7174 100.627 49.8432 100.542 50.005C100.457 50.1683 100.414 50.3661 100.414 50.5967V54.8666C100.414 55.0965 100.457 55.2944 100.542 55.4582C100.627 55.6217 100.748 55.7456 100.909 55.8312C101.07 55.9168 101.263 55.959 101.49 55.959ZM96.6871 56.779V51.1953L94.3159 56.779H93.6071V48.6787H94.4825V54.301L96.8654 48.6787H97.5629V56.779H96.6873H96.6871ZM90.03 56.8683C89.6384 56.8683 89.302 56.7861 89.0221 56.6228C88.7424 56.4592 88.5268 56.2232 88.3792 55.9131C88.2314 55.6012 88.1581 55.2298 88.1581 54.7944V50.6746C88.1581 50.2369 88.2314 49.8618 88.3792 49.5521C88.5268 49.2417 88.7401 49.0041 89.0205 48.8403C89.2983 48.6764 89.6349 48.5949 90.0301 48.5949C90.4256 48.5949 90.7638 48.6764 91.0438 48.8403C91.3257 49.004 91.5391 49.2417 91.6848 49.5521C91.8305 49.8618 91.9024 50.235 91.9024 50.6688V50.9865H90.9719V50.6688C90.9719 50.4195 90.936 50.2082 90.8641 50.0333C90.7921 49.8583 90.6846 49.727 90.5425 49.6356C90.4008 49.5439 90.2307 49.4985 90.0301 49.4985C89.8355 49.4985 89.6672 49.5439 89.5272 49.6356C89.3853 49.727 89.2778 49.8604 89.2017 50.037C89.1262 50.2122 89.0885 50.4252 89.0885 50.6745V54.7942C89.0885 55.0397 89.1263 55.2491 89.2017 55.424C89.2776 55.5989 89.3851 55.7322 89.5272 55.8254C89.6672 55.9186 89.8356 55.9641 90.0301 55.9641C90.2307 55.9641 90.4008 55.9186 90.5425 55.8254C90.6844 55.7323 90.7919 55.5989 90.8641 55.424C90.9359 55.2489 90.9719 55.0395 90.9719 54.7942V54.4703H91.9024V54.7942C91.9024 55.2295 91.8305 55.6009 91.6848 55.9129C91.5392 56.2231 91.3259 56.459 91.0438 56.6226C90.7638 56.786 90.4256 56.8681 90.0301 56.8681L90.03 56.8683ZM84.6908 56.8683C84.2992 56.8683 83.9628 56.7861 83.6826 56.6228C83.4028 56.4592 83.1872 56.2232 83.0399 55.9131C82.8923 55.6012 82.8186 55.2298 82.8186 54.7944V50.6746C82.8186 50.2369 82.8923 49.8618 83.0399 49.5521C83.1872 49.2417 83.4007 49.0041 83.6812 48.8403C83.9588 48.6764 84.2957 48.5949 84.6909 48.5949C85.086 48.5949 85.4243 48.6764 85.7042 48.8403C85.9861 49.004 86.1994 49.2417 86.3452 49.5521C86.4908 49.8618 86.5628 50.235 86.5628 50.6688V50.9865H85.6327V50.6688C85.6327 50.4195 85.5968 50.2082 85.5244 50.0333C85.4526 49.8583 85.3449 49.727 85.2028 49.6356C85.0615 49.5439 84.8911 49.4985 84.6909 49.4985C84.496 49.4985 84.3277 49.5439 84.1876 49.6356C84.0461 49.727 83.9381 49.8604 83.8622 50.037C83.7867 50.2122 83.749 50.4252 83.749 50.6745V54.7942C83.749 55.0397 83.7868 55.2491 83.8622 55.424C83.938 55.5989 84.0459 55.7322 84.1876 55.8254C84.3277 55.9186 84.496 55.9641 84.6909 55.9641C84.8911 55.9641 85.0616 55.9186 85.2028 55.8254C85.3448 55.7323 85.4524 55.5989 85.5244 55.424C85.5967 55.2489 85.6327 55.0395 85.6327 54.7942V54.4703H86.5628V54.7942C86.5628 55.2295 86.491 55.6009 86.3452 55.9129C86.1996 56.2231 85.9862 56.459 85.7042 56.6226C85.4243 56.786 85.086 56.8681 84.6909 56.8681L84.6908 56.8683ZM77.712 48.6787H78.2601H78.6365H81.1685V49.5539H78.6365V52.3185H80.8922V53.1941H78.6365V55.9091H81.1685V56.7846H78.6365H78.2601H77.712V48.6789V48.6787ZM72.7716 54.9853V50.1983C72.3676 50.2581 72.0387 50.401 71.786 50.6272C71.4421 50.9335 71.27 51.3657 71.27 51.9228V53.2603C71.27 53.8182 71.4421 54.2501 71.786 54.5585C72.0385 54.7842 72.3675 54.9263 72.7716 54.9853ZM73.6962 50.1993V54.9845C74.0975 54.9252 74.4248 54.7833 74.6774 54.5585C75.0198 54.2501 75.1916 53.8181 75.1916 53.2603V51.9228C75.1916 51.3657 75.02 50.9335 74.6774 50.6272C74.4249 50.4022 74.0975 50.2592 73.6962 50.1993ZM72.7716 48.4009H73.6962V49.2869C74.1095 49.3271 74.4758 49.4243 74.7931 49.5769C75.2263 49.7844 75.5549 50.0865 75.7798 50.4846C76.0051 50.8823 76.1182 51.3614 76.1182 51.9228V53.2603C76.1182 53.8219 76.0051 54.3017 75.7798 54.699C75.5549 55.0967 75.2263 55.3995 74.7931 55.6086C74.4758 55.7611 74.1096 55.8582 73.6962 55.8986V56.7846H72.7716V55.8995C72.3554 55.8591 71.9874 55.7621 71.6689 55.6086C71.236 55.3996 70.9088 55.0967 70.6818 54.699C70.4567 54.3016 70.3455 53.8219 70.3455 53.2603V51.9228C70.3455 51.3614 70.4567 50.8822 70.6818 50.4846C70.9089 50.0865 71.236 49.7844 71.6689 49.5769C71.9874 49.4237 72.3554 49.3265 72.7716 49.2863V48.4009ZM66.8628 56.8684C66.4412 56.8684 66.0798 56.7886 65.7812 56.6285C65.4824 56.4686 65.2535 56.237 65.0967 55.9325C64.9396 55.6278 64.8623 55.2588 64.8623 54.8286V50.6313C64.8623 50.1991 64.9396 49.8318 65.0967 49.5276C65.2535 49.2213 65.4824 48.9909 65.7812 48.8325C66.0798 48.6747 66.4412 48.595 66.8628 48.595C67.2828 48.595 67.6439 48.6749 67.9425 48.8325C68.2411 48.9909 68.4702 49.2213 68.627 49.5276C68.7839 49.8316 68.8614 50.199 68.8614 50.6313V54.8286C68.8614 55.2589 68.7839 55.6278 68.627 55.9325C68.4702 56.237 68.2411 56.4686 67.9425 56.6285C67.644 56.7886 67.2828 56.8684 66.8628 56.8684ZM66.8628 55.959C67.0914 55.959 67.2862 55.9168 67.4469 55.8312C67.6079 55.7457 67.7287 55.6218 67.8122 55.4582C67.895 55.2945 67.9368 55.0967 67.9368 54.8666V50.5967C67.9368 50.3663 67.895 50.1684 67.8122 50.005C67.7287 49.8432 67.6079 49.7176 67.4469 49.6319C67.2862 49.5464 67.0915 49.5042 66.8628 49.5042C66.6357 49.5042 66.4427 49.5464 66.2822 49.6319C66.1214 49.7174 66.0006 49.8432 65.9153 50.005C65.8303 50.1683 65.7867 50.3661 65.7867 50.5967V54.8666C65.7867 55.0965 65.8302 55.2944 65.9153 55.4582C66.0005 55.6217 66.1214 55.7456 66.2822 55.8312C66.4429 55.9168 66.6358 55.959 66.8628 55.959ZM60.1221 48.6787H61.3681C61.7311 48.6787 62.0395 48.7491 62.295 48.888C62.5482 49.0268 62.7428 49.2307 62.8752 49.4949C63.0095 49.761 63.0758 50.0829 63.0758 50.458V51.8961C63.0758 52.2634 63.0077 52.5775 62.8732 52.8382C62.739 53.0985 62.5443 53.2966 62.2889 53.4338C62.0338 53.5726 61.7274 53.6413 61.3681 53.6413H60.1221V56.7846H59.1975V48.6789H59.7799H60.1221V48.6787ZM60.1221 52.7658H61.4023C61.5537 52.7658 61.6863 52.7297 61.7975 52.6593C61.9113 52.5889 61.9964 52.4881 62.0528 52.3547C62.1096 52.2234 62.1399 52.0656 62.1399 51.8791V50.4694C62.1399 50.2749 62.1096 50.1094 62.0528 49.9723C61.9964 49.8355 61.9131 49.7308 61.8012 49.6604C61.69 49.5898 61.5574 49.5539 61.4023 49.5539H60.1221V52.7659V52.7658ZM56.7399 48.6787H57.2713V56.7844H56.3467V49.5538H54.4842V56.7844H53.5596V48.6787H54.2194H54.4842H56.3467H56.7399ZM141.526 48.6787H141.902H144.434V49.5539H141.902V52.3185H144.159V53.1941H141.902V55.9091H144.434V56.7846H141.902H141.526H140.978V48.6789H141.526V48.6787ZM185.636 51.9403H186.744C187.107 51.9403 187.415 52.0104 187.669 52.1496C187.924 52.2879 188.119 52.4918 188.251 52.7561C188.383 53.0225 188.451 53.3424 188.451 53.7191V55.0398C188.451 55.407 188.383 55.7208 188.249 55.9816C188.113 56.2422 187.918 56.4402 187.663 56.579C187.41 56.7162 187.103 56.7846 186.744 56.7846H185.636H185.293H184.711V48.6789H185.636V51.9405L185.636 51.9403ZM185.636 55.9091H186.79C186.94 55.9091 187.073 55.8731 187.185 55.8029C187.298 55.7325 187.383 55.6317 187.44 55.5003C187.496 55.3668 187.525 55.2089 187.525 55.0229V53.7305C187.525 53.5365 187.496 53.3713 187.44 53.2342C187.383 53.0971 187.298 52.9923 187.188 52.9219C187.077 52.8515 186.944 52.8154 186.79 52.8154H185.636V55.9091ZM178.487 51.3907V56.7846H177.6V48.6789H178.475L180.192 53.9939L181.909 48.6789H182.785V56.7846H181.898V51.3907L180.192 56.588L178.487 51.3907H178.487ZM172.493 48.6787H173.041H173.418H175.95V49.5539H173.418V52.3185H175.674V53.1941H173.418V55.9091H175.95V56.7846H173.418H173.041H172.493V48.6789V48.6787ZM169.408 49.5539V56.7846H168.483V49.5539H166.987V48.6787H170.898V49.5539H169.408ZM163.853 56.8683C163.461 56.8683 163.125 56.7861 162.845 56.6228C162.565 56.4592 162.35 56.2232 162.202 55.9131C162.054 55.6012 161.981 55.2298 161.981 54.7944V50.6746C161.981 50.2369 162.054 49.8618 162.202 49.5521C162.35 49.2417 162.563 49.0041 162.843 48.8403C163.121 48.6764 163.458 48.5949 163.853 48.5949C164.248 48.5949 164.587 48.6764 164.866 48.8403C165.148 49.004 165.362 49.2417 165.507 49.5521C165.653 49.8618 165.725 50.235 165.725 50.6688V50.9865H164.795V50.6688C164.795 50.4195 164.759 50.2082 164.687 50.0333C164.615 49.8583 164.507 49.727 164.365 49.6356C164.224 49.5439 164.054 49.4985 163.853 49.4985C163.658 49.4985 163.49 49.5439 163.35 49.6356C163.209 49.727 163.1 49.8604 163.025 50.037C162.949 50.2122 162.911 50.4252 162.911 50.6745V54.7942C162.911 55.0397 162.949 55.2491 163.025 55.424C163.1 55.5989 163.208 55.7322 163.35 55.8254C163.49 55.9186 163.658 55.9641 163.853 55.9641C164.054 55.9641 164.224 55.9186 164.365 55.8254C164.507 55.7323 164.615 55.5989 164.687 55.424C164.759 55.2489 164.795 55.0395 164.795 54.7942V54.4703H165.725V54.7942C165.725 55.2295 165.653 55.6009 165.507 55.9129C165.362 56.2231 165.148 56.459 164.866 56.6226C164.587 56.786 164.248 56.8681 163.853 56.8681L163.853 56.8683ZM152.521 56.8683C152.13 56.8683 151.794 56.7861 151.514 56.6228C151.234 56.4592 151.018 56.2232 150.871 55.9131C150.723 55.6012 150.65 55.2298 150.65 54.7944V50.6746C150.65 50.2369 150.723 49.8618 150.871 49.5521C151.018 49.2417 151.232 49.0041 151.512 48.8403C151.79 48.6764 152.126 48.5949 152.522 48.5949C152.917 48.5949 153.255 48.6764 153.535 48.8403C153.817 49.004 154.031 49.2417 154.176 49.5521C154.322 49.8618 154.394 50.235 154.394 50.6688V50.9865H153.463V50.6688C153.463 50.4195 153.427 50.2082 153.356 50.0333C153.284 49.8583 153.176 49.727 153.034 49.6356C152.892 49.5439 152.722 49.4985 152.522 49.4985C152.327 49.4985 152.159 49.5439 152.019 49.6356C151.877 49.727 151.769 49.8604 151.693 50.037C151.618 50.2122 151.58 50.4252 151.58 50.6745V54.7942C151.58 55.0397 151.618 55.2491 151.693 55.424C151.769 55.5989 151.877 55.7322 152.019 55.8254C152.159 55.9186 152.327 55.9641 152.522 55.9641C152.722 55.9641 152.892 55.9186 153.034 55.8254C153.176 55.7323 153.284 55.5989 153.356 55.424C153.427 55.2489 153.463 55.0395 153.463 54.7942V54.4703H154.394V54.7942C154.394 55.2295 154.322 55.6009 154.176 55.9129C154.031 56.2231 153.817 56.459 153.535 56.6226C153.255 56.786 152.917 56.8681 152.522 56.8681L152.521 56.8683ZM159.179 56.779V51.1953L156.808 56.779H156.098V48.6787H156.974V54.301L159.357 48.6787H160.054V56.779H159.179ZM189.957 56.7846H189.032V48.6789H189.957V56.7846ZM244.938 52.6422V49.5485H243.941C243.727 49.5485 243.542 49.59 243.389 49.674C243.236 49.7576 243.119 49.8812 243.037 50.045C242.956 50.2084 242.916 50.4028 242.916 50.6313V51.6227C242.916 51.8374 242.956 52.022 243.037 52.1742C243.119 52.3266 243.236 52.4425 243.389 52.5225C243.542 52.6023 243.727 52.6424 243.941 52.6424H244.938V52.6422ZM233.391 48.6789H234.315V56.7846H233.391V53.2282H231.534V56.7846H230.604V48.6789H231.534V52.3534H233.391V48.6789ZM225.497 48.6789H226.045H226.421H228.954V49.5541H226.421V52.3186H228.677V53.1943H226.421V55.9092H228.954V56.7847H226.421H226.045H225.497V48.679V48.6789ZM219.261 55.9092H220.297V48.6789H221.222V55.9092H222.252V48.6789H223.179V55.9092H223.96V58.4628H223.039V56.7847H222.652H222.253H221.222H220.297H219.261H219.04H218.337V48.679H219.262V55.9094L219.261 55.9092ZM213.23 48.6789H213.778H214.154H216.686V49.5541H214.154V52.3186H216.41V53.1943H214.154V55.9092H216.686V56.7847H214.154H213.778H213.23V48.679V48.6789ZM208.576 48.6789H209.696C210.044 48.6789 210.339 48.7376 210.585 48.8558C210.831 48.9718 211.018 49.1431 211.145 49.3673C211.273 49.5921 211.335 49.8644 211.335 50.1837V51.1543C211.335 51.4113 211.301 51.6378 211.232 51.8335C211.16 52.0314 211.059 52.193 210.929 52.3185C210.798 52.446 210.638 52.5316 210.449 52.5755C210.66 52.6137 210.84 52.6972 210.988 52.8265C211.135 52.9562 211.247 53.1254 211.324 53.331C211.402 53.5365 211.441 53.7781 211.441 54.0521V55.2395C211.441 55.5667 211.379 55.8463 211.256 56.0765C211.131 56.3072 210.952 56.4823 210.713 56.6038C210.475 56.7234 210.186 56.7844 209.846 56.7844H208.576H208.318H207.652V48.6787H208.318H208.576V48.6789ZM208.576 52.1189H209.707C209.932 52.1189 210.106 52.0411 210.228 51.8867C210.35 51.7328 210.411 51.5136 210.411 51.2324V50.241C210.411 50.0201 210.35 49.8509 210.228 49.7328C210.106 49.6133 209.936 49.5539 209.719 49.5539H208.576V52.1188V52.1189ZM208.576 55.9091H209.762C210.002 55.9091 210.187 55.8482 210.32 55.7285C210.451 55.6066 210.517 55.4374 210.517 55.2189V53.9703C210.517 53.7647 210.483 53.5897 210.413 53.4433C210.345 53.2968 210.25 53.1844 210.129 53.1086C210.006 53.0322 209.866 52.9941 209.707 52.9941H208.576V55.9092V55.9091ZM204.075 56.8684C203.684 56.8684 203.347 56.7863 203.067 56.6229C202.787 56.4593 202.572 56.2234 202.424 55.9132C202.277 55.6013 202.203 55.23 202.203 54.7945V50.6748C202.203 50.237 202.277 49.862 202.424 49.5522C202.572 49.2419 202.785 49.0043 203.066 48.8405C203.343 48.6765 203.68 48.595 204.075 48.595C204.47 48.595 204.809 48.6765 205.089 48.8405C205.37 49.0041 205.584 49.2419 205.73 49.5522C205.876 49.862 205.947 50.2352 205.947 50.6689V50.9867H205.017V50.6689C205.017 50.4196 204.981 50.2084 204.909 50.0335C204.837 49.8584 204.729 49.7271 204.588 49.6358C204.446 49.5441 204.276 49.4986 204.075 49.4986C203.88 49.4986 203.712 49.5441 203.572 49.6358C203.431 49.7271 203.323 49.8606 203.247 50.0372C203.171 50.2124 203.134 50.4253 203.134 50.6746V54.7944C203.134 55.0398 203.172 55.2492 203.247 55.4241C203.323 55.599 203.43 55.7323 203.572 55.8255C203.712 55.9188 203.88 55.9642 204.075 55.9642C204.276 55.9642 204.446 55.9188 204.588 55.8255C204.729 55.7325 204.837 55.599 204.909 55.4241C204.981 55.2491 205.017 55.0397 205.017 54.7944V54.4705H205.947V54.7944C205.947 55.2297 205.876 55.601 205.73 55.9131C205.584 56.2232 205.371 56.4592 205.089 56.6228C204.809 56.7861 204.47 56.8683 204.075 56.8683L204.075 56.8684ZM198.499 56.8684C198.078 56.8684 197.717 56.7886 197.417 56.6285C197.119 56.4686 196.89 56.237 196.733 55.9325C196.576 55.6278 196.499 55.2588 196.499 54.8286V50.6313C196.499 50.1991 196.576 49.8318 196.733 49.5276C196.89 49.2213 197.119 48.9909 197.417 48.8325C197.717 48.6747 198.078 48.595 198.499 48.595C198.919 48.595 199.28 48.6749 199.579 48.8325C199.878 48.9909 200.106 49.2213 200.264 49.5276C200.421 49.8316 200.498 50.199 200.498 50.6313V54.8286C200.498 55.2589 200.421 55.6278 200.264 55.9325C200.106 56.237 199.878 56.4686 199.579 56.6285C199.28 56.7886 198.919 56.8684 198.499 56.8684ZM198.499 55.959C198.728 55.959 198.923 55.9168 199.084 55.8312C199.245 55.7457 199.365 55.6218 199.448 55.4582C199.532 55.2945 199.573 55.0967 199.573 54.8666V50.5967C199.573 50.3663 199.532 50.1684 199.448 50.005C199.365 49.8432 199.245 49.7176 199.084 49.6319C198.923 49.5464 198.728 49.5042 198.499 49.5042C198.273 49.5042 198.079 49.5464 197.919 49.6319C197.758 49.7174 197.637 49.8432 197.552 50.005C197.467 50.1683 197.423 50.3661 197.423 50.5967V54.8666C197.423 55.0965 197.467 55.2944 197.552 55.4582C197.637 55.6217 197.758 55.7456 197.919 55.8312C198.08 55.9168 198.273 55.959 198.499 55.959ZM239.322 56.779V51.1953L236.951 56.779H236.242V48.6787H237.117V54.301L239.5 48.6787H240.198V56.779H239.322ZM244.938 48.6728H245.371H245.864V56.7846H244.938V53.523H244.068L242.983 56.7846H241.986L243.211 53.4097C243.114 53.3791 243.021 53.343 242.934 53.3003C242.627 53.1521 242.393 52.9353 242.232 52.6516C242.071 52.3661 241.992 52.0252 241.992 51.6281V50.5128C241.992 50.1267 242.071 49.7954 242.232 49.518C242.393 49.2417 242.627 49.0305 242.934 48.888C243.24 48.7451 243.606 48.6727 244.036 48.6727H244.938V48.6728Z" fill="#C42E2C"/>
<path d="M0 39.4225L1.04496 45.7629L42.4487 19.2007L45.8634 0L0 39.4225Z" fill="#C42E2C"/>
</g>
<defs>
<clipPath id="clip0_3009_12352">
<rect width="253" height="62" fill="white"/>
</clipPath>
</defs>
</svg>
